<svg width="87" height="15" viewBox="0 0 87 15" fill="none" xmlns="http://www.w3.org/2000/svg">
<path d="M21.74 4.08V4.968H19.124V7.656H21.38V8.544H19.124V12H17.72V4.08H21.74ZM24.1399 3.456V11.016C24.1399 11.408 24.2639 11.672 24.5119 11.808C24.4479 11.928 24.3399 12.02 24.1879 12.084C24.0439 12.148 23.8919 12.18 23.7319 12.18C23.4279 12.18 23.1999 12.092 23.0479 11.916C22.8959 11.74 22.8199 11.492 22.8199 11.172V3.6L24.1399 3.456ZM28.0393 5.64C28.9353 5.64 29.5993 5.932 30.0313 6.516C30.4633 7.092 30.6793 7.872 30.6793 8.856C30.6793 9.904 30.4713 10.736 30.0553 11.352C29.6393 11.96 28.9673 12.264 28.0393 12.264C27.1273 12.264 26.4593 11.972 26.0353 11.388C25.6193 10.804 25.4113 10 25.4113 8.976C25.4113 7.984 25.6273 7.18 26.0593 6.564C26.4913 5.948 27.1513 5.64 28.0393 5.64ZM28.0393 11.544C28.5353 11.544 28.8593 11.3 29.0113 10.812C29.1633 10.324 29.2393 9.692 29.2393 8.916C29.2393 8.204 29.1553 7.6 28.9873 7.104C28.8273 6.608 28.5113 6.36 28.0393 6.36C27.2473 6.36 26.8513 7.212 26.8513 8.916C26.8513 9.692 26.9233 10.324 27.0673 10.812C27.2193 11.3 27.5433 11.544 28.0393 11.544ZM33.9905 6.564C33.6465 6.564 33.4225 6.796 33.3185 7.26C33.2225 7.716 33.1745 8.264 33.1745 8.904V12H31.8545V5.88L32.9585 5.736L33.0185 6.816C33.1305 6.456 33.3265 6.172 33.6065 5.964C33.8865 5.748 34.2105 5.64 34.5785 5.64C34.9785 5.64 35.2945 5.756 35.5265 5.988C35.7665 6.22 35.8865 6.536 35.8865 6.936C35.8865 7.584 35.5745 7.908 34.9505 7.908C34.7425 7.908 34.5825 7.864 34.4705 7.776C34.5265 7.568 34.5545 7.388 34.5545 7.236C34.5545 6.788 34.3665 6.564 33.9905 6.564ZM37.2609 3.36C37.5249 3.36 37.7369 3.424 37.8969 3.552C38.0649 3.68 38.1489 3.864 38.1489 4.104C38.1489 4.352 38.0609 4.544 37.8849 4.68C37.7169 4.808 37.4969 4.872 37.2249 4.872C36.9609 4.872 36.7489 4.808 36.5889 4.68C36.4289 4.552 36.3489 4.368 36.3489 4.128C36.3489 3.88 36.4329 3.692 36.6009 3.564C36.7769 3.428 36.9969 3.36 37.2609 3.36ZM37.8849 11.016C37.8849 11.408 38.0089 11.672 38.2569 11.808C38.1929 11.928 38.0889 12.02 37.9449 12.084C37.8009 12.148 37.6449 12.18 37.4769 12.18C37.1729 12.18 36.9449 12.092 36.7929 11.916C36.6409 11.74 36.5649 11.492 36.5649 11.172V5.88H37.8849V11.016ZM44.1626 11.016C44.1626 11.408 44.2866 11.672 44.5346 11.808C44.4706 11.928 44.3746 12.02 44.2466 12.084C44.1266 12.148 43.9866 12.18 43.8266 12.18C43.5946 12.18 43.4026 12.116 43.2506 11.988C43.0986 11.852 43.0066 11.672 42.9746 11.448C42.8466 11.712 42.6386 11.912 42.3506 12.048C42.0706 12.192 41.7666 12.264 41.4386 12.264C40.6226 12.264 40.0306 11.952 39.6626 11.328C39.2946 10.704 39.1106 9.904 39.1106 8.928C39.1106 7.92 39.3266 7.12 39.7586 6.528C40.1986 5.936 40.8786 5.64 41.7986 5.64C42.1826 5.64 42.5306 5.692 42.8426 5.796V3.6L44.1626 3.456V11.016ZM42.8426 6.732C42.4746 6.484 42.1066 6.36 41.7386 6.36C41.2506 6.36 40.9306 6.592 40.7786 7.056C40.6266 7.52 40.5506 8.124 40.5506 8.868C40.5506 9.58 40.6386 10.192 40.8146 10.704C40.9906 11.208 41.3146 11.46 41.7866 11.46C42.1386 11.46 42.4026 11.328 42.5786 11.064C42.7546 10.792 42.8426 10.456 42.8426 10.056V6.732ZM49.0987 11.448C48.9467 11.728 48.7227 11.932 48.4267 12.06C48.1387 12.196 47.8107 12.264 47.4427 12.264C46.8907 12.264 46.4267 12.096 46.0507 11.76C45.6827 11.424 45.4987 10.988 45.4987 10.452C45.4987 9.156 46.6547 8.508 48.9667 8.508V7.464C48.9667 7.064 48.9067 6.768 48.7867 6.576C48.6667 6.376 48.4387 6.276 48.1027 6.276C47.8227 6.276 47.5907 6.352 47.4067 6.504C47.2227 6.648 47.1307 6.852 47.1307 7.116C47.1307 7.284 47.1627 7.464 47.2267 7.656C47.1147 7.744 46.9547 7.788 46.7467 7.788C46.4587 7.788 46.2307 7.716 46.0627 7.572C45.8947 7.428 45.8107 7.22 45.8107 6.948C45.8107 6.564 46.0267 6.252 46.4587 6.012C46.8907 5.764 47.4667 5.64 48.1867 5.64C48.7147 5.64 49.1307 5.72 49.4347 5.88C49.7387 6.032 49.9547 6.272 50.0827 6.6C50.2187 6.92 50.2867 7.352 50.2867 7.896V11.016C50.2867 11.408 50.4107 11.672 50.6587 11.808C50.5947 11.928 50.4987 12.02 50.3707 12.084C50.2507 12.148 50.1107 12.18 49.9507 12.18C49.7187 12.18 49.5267 12.116 49.3747 11.988C49.2227 11.852 49.1307 11.672 49.0987 11.448ZM47.9107 11.46C48.2627 11.46 48.5267 11.328 48.7027 11.064C48.8787 10.792 48.9667 10.456 48.9667 10.056V9.108C47.6147 9.108 46.9387 9.54 46.9387 10.404C46.9387 10.724 47.0227 10.98 47.1907 11.172C47.3667 11.364 47.6067 11.46 47.9107 11.46ZM55.2763 4.08V12H53.8723V4.08H55.2763ZM56.792 5.88L57.896 5.736L57.956 6.816C58.108 6.432 58.34 6.14 58.652 5.94C58.972 5.74 59.344 5.64 59.768 5.64C60.24 5.64 60.608 5.736 60.872 5.928C61.136 6.112 61.324 6.388 61.436 6.756C61.748 6.012 62.316 5.64 63.14 5.64C63.812 5.64 64.28 5.828 64.544 6.204C64.808 6.572 64.94 7.136 64.94 7.896V11.016C64.94 11.408 65.064 11.672 65.312 11.808C65.248 11.928 65.144 12.02 65 12.084C64.856 12.148 64.704 12.18 64.544 12.18C64.232 12.18 64 12.092 63.848 11.916C63.696 11.74 63.62 11.492 63.62 11.172V8.064C63.62 7.56 63.564 7.184 63.452 6.936C63.34 6.688 63.092 6.564 62.708 6.564C62.252 6.564 61.948 6.78 61.796 7.212C61.644 7.644 61.568 8.2 61.568 8.88V12H60.248V8.064C60.248 7.56 60.192 7.184 60.08 6.936C59.968 6.688 59.72 6.564 59.336 6.564C58.848 6.564 58.52 6.78 58.352 7.212C58.192 7.644 58.112 8.2 58.112 8.88V12H56.792V5.88ZM69.5071 5.64C70.2591 5.64 70.7951 5.944 71.1151 6.552C71.4351 7.152 71.5951 7.92 71.5951 8.856C71.5951 9.88 71.3751 10.704 70.9351 11.328C70.4951 11.952 69.8191 12.264 68.9071 12.264C68.5231 12.264 68.1751 12.212 67.8631 12.108V14.172L66.5431 14.316V5.88L67.6471 5.736L67.7071 6.816C68.0431 6.032 68.6431 5.64 69.5071 5.64ZM69.0391 6.564C68.6231 6.564 68.3231 6.732 68.1391 7.068C67.9551 7.396 67.8631 7.812 67.8631 8.316V11.172C68.2311 11.42 68.5991 11.544 68.9671 11.544C69.4551 11.544 69.7751 11.296 69.9271 10.8C70.0791 10.304 70.1551 9.676 70.1551 8.916C70.1551 8.204 70.0871 7.636 69.9511 7.212C69.8151 6.78 69.5111 6.564 69.0391 6.564ZM74.9964 5.64C75.8924 5.64 76.5564 5.932 76.9884 6.516C77.4204 7.092 77.6364 7.872 77.6364 8.856C77.6364 9.904 77.4284 10.736 77.0124 11.352C76.5964 11.96 75.9244 12.264 74.9964 12.264C74.0844 12.264 73.4164 11.972 72.9924 11.388C72.5764 10.804 72.3684 10 72.3684 8.976C72.3684 7.984 72.5844 7.18 73.0164 6.564C73.4484 5.948 74.1084 5.64 74.9964 5.64ZM74.9964 11.544C75.4924 11.544 75.8164 11.3 75.9684 10.812C76.1204 10.324 76.1964 9.692 76.1964 8.916C76.1964 8.204 76.1124 7.6 75.9444 7.104C75.7844 6.608 75.4684 6.36 74.9964 6.36C74.2044 6.36 73.8084 7.212 73.8084 8.916C73.8084 9.692 73.8804 10.324 74.0244 10.812C74.1764 11.3 74.5004 11.544 74.9964 11.544ZM80.9475 6.564C80.6035 6.564 80.3795 6.796 80.2755 7.26C80.1795 7.716 80.1315 8.264 80.1315 8.904V12H78.8115V5.88L79.9155 5.736L79.9755 6.816C80.0875 6.456 80.2835 6.172 80.5635 5.964C80.8435 5.748 81.1675 5.64 81.5355 5.64C81.9355 5.64 82.2515 5.756 82.4835 5.988C82.7235 6.22 82.8435 6.536 82.8435 6.936C82.8435 7.584 82.5315 7.908 81.9075 7.908C81.6995 7.908 81.5395 7.864 81.4275 7.776C81.4835 7.568 81.5115 7.388 81.5115 7.236C81.5115 6.788 81.3235 6.564 80.9475 6.564ZM82.8139 6.42L82.8019 6.06C83.1619 5.916 83.5019 5.724 83.8219 5.484C84.1499 5.244 84.4259 4.98 84.6499 4.692H85.0219V5.88H86.1259V6.42H84.9979V10.788C84.9979 11.028 85.0419 11.208 85.1299 11.328C85.2179 11.448 85.3579 11.524 85.5499 11.556C85.5099 11.74 85.4019 11.888 85.2259 12C85.0579 12.12 84.8619 12.18 84.6379 12.18C83.9899 12.18 83.6659 11.812 83.6659 11.076V6.42H82.8139Z" fill="white"/>
<line x1="14.5" y1="1" x2="14.5" y2="15" stroke="white"/>
<path d="M10.8535 8.77486C10.0887 12.3757 8.55912 16.8769 5.5 14.1762C2.44087 16.8769 0.88849 12.2682 0.146536 8.77486C-0.618253 5.17397 1.6761 2.47331 5.5 4.27375C9.32391 2.47331 11.6182 5.17397 10.8535 8.77486Z" fill="white"/>
<path d="M7.79432 1C6.24909 1.2026 5.74559 1.79248 5.49998 3.70067C7.02954 3.70067 7.79432 2.80044 7.79432 1Z" fill="white"/>
</svg>
