<svg width="70" height="19" viewBox="0 0 70 19" fill="none" xmlns="http://www.w3.org/2000/svg">
<path d="M4.74 4.08V4.968H2.124V7.656H4.38V8.544H2.124V12H0.72V4.08H4.74ZM7.13991 3.456V11.016C7.13991 11.408 7.26391 11.672 7.51191 11.808C7.44791 11.928 7.33991 12.02 7.18791 12.084C7.04391 12.148 6.89191 12.18 6.73191 12.18C6.42791 12.18 6.19991 12.092 6.04791 11.916C5.89591 11.74 5.81991 11.492 5.81991 11.172V3.6L7.13991 3.456ZM16.9905 6.564C16.6465 6.564 16.4225 6.796 16.3185 7.26C16.2225 7.716 16.1745 8.264 16.1745 8.904V12H14.8545V5.88L15.9585 5.736L16.0185 6.816C16.1305 6.456 16.3265 6.172 16.6065 5.964C16.8865 5.748 17.2105 5.64 17.5785 5.64C17.9785 5.64 18.2945 5.756 18.5265 5.988C18.7665 6.22 18.8865 6.536 18.8865 6.936C18.8865 7.584 18.5745 7.908 17.9505 7.908C17.7425 7.908 17.5825 7.864 17.4705 7.776C17.5265 7.568 17.5545 7.388 17.5545 7.236C17.5545 6.788 17.3665 6.564 16.9905 6.564ZM20.2609 3.36C20.5249 3.36 20.7369 3.424 20.8969 3.552C21.0649 3.68 21.1489 3.864 21.1489 4.104C21.1489 4.352 21.0609 4.544 20.8849 4.68C20.7169 4.808 20.4969 4.872 20.2249 4.872C19.9609 4.872 19.7489 4.808 19.5889 4.68C19.4289 4.552 19.3489 4.368 19.3489 4.128C19.3489 3.88 19.4329 3.692 19.6009 3.564C19.7769 3.428 19.9969 3.36 20.2609 3.36ZM20.8849 11.016C20.8849 11.408 21.0089 11.672 21.2569 11.808C21.1929 11.928 21.0889 12.02 20.9449 12.084C20.8009 12.148 20.6449 12.18 20.4769 12.18C20.1729 12.18 19.9449 12.092 19.7929 11.916C19.6409 11.74 19.5649 11.492 19.5649 11.172V5.88H20.8849V11.016ZM27.1626 11.016C27.1626 11.408 27.2866 11.672 27.5346 11.808C27.4706 11.928 27.3746 12.02 27.2466 12.084C27.1266 12.148 26.9866 12.18 26.8266 12.18C26.5946 12.18 26.4026 12.116 26.2506 11.988C26.0986 11.852 26.0066 11.672 25.9746 11.448C25.8466 11.712 25.6386 11.912 25.3506 12.048C25.0706 12.192 24.7666 12.264 24.4386 12.264C23.6226 12.264 23.0306 11.952 22.6626 11.328C22.2946 10.704 22.1106 9.904 22.1106 8.928C22.1106 7.92 22.3266 7.12 22.7586 6.528C23.1986 5.936 23.8786 5.64 24.7986 5.64C25.1826 5.64 25.5306 5.692 25.8426 5.796V3.6L27.1626 3.456V11.016ZM25.8426 6.732C25.4746 6.484 25.1066 6.36 24.7386 6.36C24.2506 6.36 23.9306 6.592 23.7786 7.056C23.6266 7.52 23.5506 8.124 23.5506 8.868C23.5506 9.58 23.6386 10.192 23.8146 10.704C23.9906 11.208 24.3146 11.46 24.7866 11.46C25.1386 11.46 25.4026 11.328 25.5786 11.064C25.7546 10.792 25.8426 10.456 25.8426 10.056V6.732ZM32.0987 11.448C31.9467 11.728 31.7227 11.932 31.4267 12.06C31.1387 12.196 30.8107 12.264 30.4427 12.264C29.8907 12.264 29.4267 12.096 29.0507 11.76C28.6827 11.424 28.4987 10.988 28.4987 10.452C28.4987 9.156 29.6547 8.508 31.9667 8.508V7.464C31.9667 7.064 31.9067 6.768 31.7867 6.576C31.6667 6.376 31.4387 6.276 31.1027 6.276C30.8227 6.276 30.5907 6.352 30.4067 6.504C30.2227 6.648 30.1307 6.852 30.1307 7.116C30.1307 7.284 30.1627 7.464 30.2267 7.656C30.1147 7.744 29.9547 7.788 29.7467 7.788C29.4587 7.788 29.2307 7.716 29.0627 7.572C28.8947 7.428 28.8107 7.22 28.8107 6.948C28.8107 6.564 29.0267 6.252 29.4587 6.012C29.8907 5.764 30.4667 5.64 31.1867 5.64C31.7147 5.64 32.1307 5.72 32.4347 5.88C32.7387 6.032 32.9547 6.272 33.0827 6.6C33.2187 6.92 33.2867 7.352 33.2867 7.896V11.016C33.2867 11.408 33.4107 11.672 33.6587 11.808C33.5947 11.928 33.4987 12.02 33.3707 12.084C33.2507 12.148 33.1107 12.18 32.9507 12.18C32.7187 12.18 32.5267 12.116 32.3747 11.988C32.2227 11.852 32.1307 11.672 32.0987 11.448ZM30.9107 11.46C31.2627 11.46 31.5267 11.328 31.7027 11.064C31.8787 10.792 31.9667 10.456 31.9667 10.056V9.108C30.6147 9.108 29.9387 9.54 29.9387 10.404C29.9387 10.724 30.0227 10.98 30.1907 11.172C30.3667 11.364 30.6067 11.46 30.9107 11.46ZM38.2763 4.08V12H36.8723V4.08H38.2763ZM39.792 5.88L40.896 5.736L40.956 6.816C41.108 6.432 41.34 6.14 41.652 5.94C41.972 5.74 42.344 5.64 42.768 5.64C43.24 5.64 43.608 5.736 43.872 5.928C44.136 6.112 44.324 6.388 44.436 6.756C44.748 6.012 45.316 5.64 46.14 5.64C46.812 5.64 47.28 5.828 47.544 6.204C47.808 6.572 47.94 7.136 47.94 7.896V11.016C47.94 11.408 48.064 11.672 48.312 11.808C48.248 11.928 48.144 12.02 48 12.084C47.856 12.148 47.704 12.18 47.544 12.18C47.232 12.18 47 12.092 46.848 11.916C46.696 11.74 46.62 11.492 46.62 11.172V8.064C46.62 7.56 46.564 7.184 46.452 6.936C46.34 6.688 46.092 6.564 45.708 6.564C45.252 6.564 44.948 6.78 44.796 7.212C44.644 7.644 44.568 8.2 44.568 8.88V12H43.248V8.064C43.248 7.56 43.192 7.184 43.08 6.936C42.968 6.688 42.72 6.564 42.336 6.564C41.848 6.564 41.52 6.78 41.352 7.212C41.192 7.644 41.112 8.2 41.112 8.88V12H39.792V5.88ZM52.5071 5.64C53.2591 5.64 53.7951 5.944 54.1151 6.552C54.4351 7.152 54.5951 7.92 54.5951 8.856C54.5951 9.88 54.3751 10.704 53.9351 11.328C53.4951 11.952 52.8191 12.264 51.9071 12.264C51.5231 12.264 51.1751 12.212 50.8631 12.108V14.172L49.5431 14.316V5.88L50.6471 5.736L50.7071 6.816C51.0431 6.032 51.6431 5.64 52.5071 5.64ZM52.0391 6.564C51.6231 6.564 51.3231 6.732 51.1391 7.068C50.9551 7.396 50.8631 7.812 50.8631 8.316V11.172C51.2311 11.42 51.5991 11.544 51.9671 11.544C52.4551 11.544 52.7751 11.296 52.9271 10.8C53.0791 10.304 53.1551 9.676 53.1551 8.916C53.1551 8.204 53.0871 7.636 52.9511 7.212C52.8151 6.78 52.5111 6.564 52.0391 6.564ZM57.9964 5.64C58.8924 5.64 59.5564 5.932 59.9884 6.516C60.4204 7.092 60.6364 7.872 60.6364 8.856C60.6364 9.904 60.4284 10.736 60.0124 11.352C59.5964 11.96 58.9244 12.264 57.9964 12.264C57.0844 12.264 56.4164 11.972 55.9924 11.388C55.5764 10.804 55.3684 10 55.3684 8.976C55.3684 7.984 55.5844 7.18 56.0164 6.564C56.4484 5.948 57.1084 5.64 57.9964 5.64ZM57.9964 11.544C58.4924 11.544 58.8164 11.3 58.9684 10.812C59.1204 10.324 59.1964 9.692 59.1964 8.916C59.1964 8.204 59.1124 7.6 58.9444 7.104C58.7844 6.608 58.4684 6.36 57.9964 6.36C57.2044 6.36 56.8084 7.212 56.8084 8.916C56.8084 9.692 56.8804 10.324 57.0244 10.812C57.1764 11.3 57.5004 11.544 57.9964 11.544ZM63.9475 6.564C63.6035 6.564 63.3795 6.796 63.2755 7.26C63.1795 7.716 63.1315 8.264 63.1315 8.904V12H61.8115V5.88L62.9155 5.736L62.9755 6.816C63.0875 6.456 63.2835 6.172 63.5635 5.964C63.8435 5.748 64.1675 5.64 64.5355 5.64C64.9355 5.64 65.2515 5.756 65.4835 5.988C65.7235 6.22 65.8435 6.536 65.8435 6.936C65.8435 7.584 65.5315 7.908 64.9075 7.908C64.6995 7.908 64.5395 7.864 64.4275 7.776C64.4835 7.568 64.5115 7.388 64.5115 7.236C64.5115 6.788 64.3235 6.564 63.9475 6.564ZM65.8139 6.42L65.8019 6.06C66.1619 5.916 66.5019 5.724 66.8219 5.484C67.1499 5.244 67.4259 4.98 67.6499 4.692H68.0219V5.88H69.1259V6.42H67.9979V10.788C67.9979 11.028 68.0419 11.208 68.1299 11.328C68.2179 11.448 68.3579 11.524 68.5499 11.556C68.5099 11.74 68.4019 11.888 68.2259 12C68.0579 12.12 67.8619 12.18 67.6379 12.18C66.9899 12.18 66.6659 11.812 66.6659 11.076V6.42H65.8139Z" fill="white"/>
<ellipse cx="61.4375" cy="16" rx="0.9375" ry="1" fill="white"/>
<ellipse cx="57.6875" cy="16" rx="0.9375" ry="1" fill="white"/>
<ellipse cx="53.9375" cy="16" rx="0.9375" ry="1" fill="white"/>
<path d="M68 16L63.7812 18.5981V13.4019L68 16Z" fill="white"/>
<path d="M13.9201 8.44278C13.5029 10.5004 12.6686 13.0725 11 11.5293C9.33139 13.0725 8.48463 10.439 8.07993 8.44278C7.66277 6.38513 8.91423 4.84189 11 5.87072C13.0858 4.84189 14.3372 6.38513 13.9201 8.44278Z" fill="white"/>
<path d="M12.2515 4C11.4086 4.11577 11.134 4.45284 11 5.54324C11.8343 5.54324 12.2515 5.02882 12.2515 4Z" fill="white"/>
</svg>
